Coordinates
version=1
nRows=18
nColumns=63
inDegrees=yes

Units are S.I. units (second, meters, Newtons, ...)
If the header above contains a line with 'inDegrees', this indicates whether rotational values are in degrees (yes) or radians (no).

endheader
time	pelvis_tilt	pelvis_list	pelvis_rotation	pelvis_tx	pelvis_ty	pelvis_tz	hip_flexion_r	hip_adduction_r	hip_rotation_r	knee_angle_r	knee_angle_r_beta	ankle_angle_r	subtalar_angle_r	mtp_angle_r	hip_flexion_l	hip_adduction_l	hip_rotation_l	knee_angle_l	knee_angle_l_beta	ankle_angle_l	subtalar_angle_l	mtp_angle_l	L5_S1_Flex_Ext	L5_S1_Lat_Bending	L5_S1_axial_rotation	L4_L5_Flex_Ext	L4_L5_Lat_Bending	L4_L5_axial_rotation	L3_L4_Flex_Ext	L3_L4_Lat_Bending	L3_L4_axial_rotation	L2_L3_Flex_Ext	L2_L3_Lat_Bending	L2_L3_axial_rotation	L1_L2_Flex_Ext	L1_L2_Lat_Bending	L1_L2_axial_rotation	L1_T12_Flex_Ext	L1_T12_Lat_Bending	L1_T12_axial_rotation	Abs_r3	Abs_r2	Abs_r1	Abs_t1	Abs_t2	neck_flexion	neck_bending	neck_rotation	arm_flex_r	arm_add_r	arm_rot_r	elbow_flex_r	pro_sup_r	wrist_flex_r	wrist_dev_r	arm_flex_l	arm_add_l	arm_rot_l	elbow_flex_l	pro_sup_l	wrist_flex_l	wrist_dev_l
0.000000	-1.793191	-4.674062	92.483228	0.291606	0.838369	0.800900	5.594895	-1.029815	-3.723340	8.644709	0.150879	28.164229	13.933897	0.000000	4.084568	0.459142	9.891896	4.773463	0.083313	24.591636	-14.109231	0.000000	0.190713	0.082067	0.708641	0.354173	0.109149	0.752931	0.313323	0.199537	0.752931	0.217966	0.199537	0.620061	0.177096	0.167350	0.575771	0.108973	0.127121	0.531481	1.362245	0.928354	3.941249	0.000000	0.000000	26.344136	-4.617183	-2.845315	9.883528	-8.076911	36.493121	52.357775	68.122745	-5.286952	-4.229331	14.923149	-7.146618	47.524790	54.533952	48.232782	-0.279210	2.604919
0.020408	-1.949450	-4.517391	90.492613	0.293677	0.838653	0.799630	5.652344	-0.996030	-1.588561	8.710370	0.152025	28.365454	13.600197	0.000000	3.339691	0.563801	8.963092	4.284944	0.074786	23.852892	-14.927132	0.000000	0.184770	0.080131	1.027791	0.343136	0.106574	1.092028	0.303558	0.194831	1.092028	0.211173	0.194831	0.899317	0.171577	0.163403	0.835080	0.105577	0.124123	0.770843	1.319792	0.906460	5.716267	0.000000	0.000000	26.184021	-4.603471	-2.450047	8.828317	-8.182751	35.577945	52.833354	70.822400	-5.425320	-3.786497	14.529862	-6.880213	46.977445	54.081774	49.012390	0.057842	2.818461
0.040816	-2.065508	-4.396003	88.925610	0.295341	0.838867	0.798630	5.693623	-0.962213	0.153547	8.744062	0.152613	28.537799	13.315800	0.000000	2.754588	0.638908	8.217794	3.900165	0.068071	23.292267	-15.563883	0.000000	0.179890	0.078804	1.281524	0.334074	0.104809	1.361620	0.295542	0.191604	1.361620	0.205597	0.191604	1.121334	0.167046	0.160697	1.041238	0.102789	0.122067	0.961143	1.284938	0.891444	7.127454	0.000000	0.000000	26.069216	-4.593781	-2.157924	7.933566	-8.216885	34.683870	53.225308	73.259982	-5.547867	-3.454318	14.210666	-6.661959	46.505242	53.736358	49.670414	0.429109	3.058229
0.061224	-2.143056	-4.305100	87.749798	0.296628	0.839022	0.797873	5.717263	-0.926373	1.533749	8.745970	0.152646	28.682993	13.073423	0.000000	2.313782	0.685215	7.644451	3.610104	0.063008	22.893593	-16.034117	0.000000	0.175932	0.078230	1.474913	0.326724	0.104046	1.567095	0.289039	0.190209	1.567095	0.201073	0.190209	1.290549	0.163371	0.159527	1.198367	0.100528	0.121179	1.106185	1.256666	0.884958	8.203026	0.000000	0.000000	25.992992	-4.588265	-1.962205	7.186874	-8.188154	33.816405	53.539433	75.425250	-5.653099	-3.215183	13.960906	-6.486101	46.108024	53.480703	50.211142	0.821750	3.314284
0.081633	-2.183786	-4.239885	86.932757	0.297566	0.839125	0.797333	5.721797	-0.886520	2.582812	8.716282	0.152128	28.802769	12.865782	0.000000	2.001793	0.703474	7.231512	3.405740	0.059441	22.640702	-16.352469	0.000000	0.172753	0.078557	1.613032	0.320820	0.104481	1.713847	0.283816	0.191004	1.713847	0.197440	0.191004	1.411403	0.160419	0.160193	1.310589	0.098711	0.121685	1.209774	1.233959	0.888653	8.971201	0.000000	0.000000	25.948623	-4.587073	-1.856145	6.575839	-8.105395	32.981060	53.781523	77.307964	-5.739521	-3.051479	13.775924	-6.346882	45.785638	53.297806	50.638859	1.222924	3.576688
0.102041	-2.189391	-4.195558	86.442066	0.298184	0.839183	0.796982	5.705755	-0.840662	3.331503	8.655184	0.151061	28.898855	12.685593	0.000000	1.803142	0.694436	6.967425	3.278051	0.057213	22.517427	-16.533573	0.000000	0.170211	0.079930	1.700954	0.316099	0.106306	1.807264	0.279640	0.194341	1.807264	0.194534	0.194341	1.488335	0.158058	0.162992	1.382025	0.097259	0.123811	1.275716	1.215802	0.904179	9.460197	0.000000	0.000000	25.929382	-4.590357	-1.833002	6.088061	-7.977447	32.183344	53.957373	78.897885	-5.805637	-2.945595	13.651064	-6.238548	45.537928	53.170667	50.957853	1.619793	3.835500
0.122449	-2.161562	-4.167323	86.245304	0.298510	0.839205	0.796794	5.667669	-0.786809	3.810587	8.562862	0.149450	28.972984	12.525573	0.000000	1.702351	0.658854	6.840639	3.218015	0.056165	22.507599	-16.592063	0.000000	0.168164	0.082494	1.743753	0.312297	0.109717	1.852737	0.276276	0.200576	1.852737	0.192194	0.200576	1.525784	0.156157	0.168222	1.416799	0.096089	0.127783	1.307815	1.201178	0.933189	9.698230	0.000000	0.000000	25.928541	-4.598269	-1.886032	5.711138	-7.813149	31.428765	54.072779	80.184774	-5.849954	-2.879919	13.581669	-6.155344	45.364739	53.082283	51.172409	1.999516	4.080781
0.142857	-2.101992	-4.150380	86.310051	0.298574	0.839199	0.796741	5.606071	-0.722971	4.050831	8.439502	0.147297	29.026884	12.378439	0.000000	1.683941	0.597480	6.839603	3.216610	0.056140	22.595051	-16.542573	0.000000	0.166469	0.086396	1.746502	0.309149	0.114907	1.855658	0.273491	0.210064	1.855658	0.190257	0.210064	1.528189	0.154583	0.176180	1.419033	0.095120	0.133828	1.309876	1.189069	0.977333	9.713519	0.000000	0.000000	25.939373	-4.610959	-2.008491	5.432667	-7.621339	30.722834	54.133535	81.158390	-5.870975	-2.836840	13.563081	-6.091515	45.265918	53.015653	51.286816	2.349254	4.302593
0.163265	-2.012371	-4.139931	86.603886	0.298405	0.839173	0.796799	5.519493	-0.647156	4.083001	8.285293	0.144606	29.062287	12.236908	0.000000	1.732433	0.511065	6.952765	3.264814	0.056982	22.763615	-16.399739	0.000000	0.164983	0.091783	1.714275	0.306391	0.122071	1.821417	0.271051	0.223160	1.821417	0.188559	0.223160	1.499990	0.153204	0.187163	1.392848	0.094271	0.142171	1.285706	1.178459	1.038263	9.534281	0.000000	0.000000	25.955151	-4.628578	-2.193638	5.240248	-7.410857	30.071059	54.145437	81.808493	-5.867206	-2.798745	13.590645	-6.041304	45.241308	52.953776	51.305360	2.656166	4.490996
0.183673	-1.894393	-4.131180	87.094389	0.298030	0.839135	0.796939	5.406466	-0.557374	3.937864	8.100419	0.141379	29.080922	12.093696	0.000000	1.832349	0.400362	7.168576	3.353606	0.058531	22.997122	-16.178194	0.000000	0.163566	0.098799	1.652145	0.303758	0.131402	1.755404	0.268722	0.240219	1.755404	0.186939	0.240219	1.445627	0.151887	0.201470	1.342368	0.093461	0.153039	1.239109	1.168333	1.117630	9.188733	0.000000	0.000000	25.969148	-4.651278	-2.434728	5.121479	-7.190540	29.478950	54.114279	82.124845	-5.837152	-2.748023	13.659704	-5.998958	45.290755	52.879648	51.232326	2.907412	4.636051
0.204082	-1.749750	-4.119326	87.749140	0.297479	0.839093	0.797135	5.265522	-0.451635	3.646184	7.885067	0.137620	29.084522	11.941519	0.000000	1.968210	0.266123	7.475483	3.473964	0.060632	23.279406	-15.892573	0.000000	0.162073	0.107590	1.565186	0.300986	0.143095	1.663010	0.266270	0.261595	1.663010	0.185233	0.261595	1.369537	0.150501	0.219398	1.271713	0.092609	0.166658	1.173889	1.157672	1.217084	8.705093	0.000000	0.000000	25.974636	-4.679211	-2.725019	5.063958	-6.969227	28.952016	54.045858	82.097205	-5.779319	-2.667062	13.765600	-5.958720	45.414104	52.776269	51.072003	3.090153	4.727818
0.224490	-1.573521	-4.074932	88.530886	0.296769	0.839068	0.797285	5.069564	-0.321457	3.118329	7.642433	0.133386	29.112131	11.939089	0.000000	2.093346	0.104018	7.863509	3.615127	0.063096	23.580560	-15.559774	0.000000	0.159855	0.119394	1.458257	0.296866	0.158794	1.549398	0.262625	0.290294	1.549398	0.182698	0.290294	1.275975	0.148441	0.243468	1.184834	0.091341	0.184941	1.093693	1.141826	1.350607	8.110388	0.000000	0.000000	25.912019	-4.708337	-3.059358	5.036000	-6.734231	28.397395	53.958901	80.913125	-5.633156	-2.561710	13.918138	-5.860526	45.576918	52.578301	50.814619	3.161911	4.992700
0.244898	-1.372815	-4.000646	89.418064	0.295942	0.839079	0.797386	4.812477	-0.161327	2.588987	7.332224	0.127971	29.116668	11.766637	0.000000	2.199758	-0.086199	8.360532	3.768414	0.065771	23.887473	-15.204794	0.000000	0.155997	0.133401	1.331477	0.289703	0.177423	1.414694	0.256288	0.324351	1.414694	0.178289	0.324351	1.165042	0.144859	0.272032	1.081825	0.089137	0.206638	0.998608	1.114274	1.509060	7.405276	0.000000	0.000000	25.804586	-4.744086	-3.416756	4.978958	-6.510765	27.846775	53.862651	79.805257	-5.553970	-2.394381	14.099105	-5.756685	45.893815	52.280940	50.414697	3.043676	5.031451
0.265306	-1.145406	-3.901264	90.355578	0.295026	0.839132	0.797438	4.506825	0.026822	2.031725	6.964875	0.121560	29.090263	11.544252	0.000000	2.280228	-0.304477	8.909295	3.920232	0.068421	24.179165	-14.840439	0.000000	0.151382	0.150608	1.194969	0.281132	0.200308	1.269654	0.248706	0.366187	1.269654	0.173015	0.366187	1.045598	0.140574	0.307119	0.970912	0.086500	0.233291	0.896227	1.081309	1.703702	6.646058	0.000000	0.000000	25.650638	-4.759902	-3.772875	4.917956	-6.346927	27.481270	53.736985	78.456348	-5.513454	-2.131720	14.290498	-5.626044	46.289007	51.873056	49.953861	2.754408	4.954664
0.285714	-0.896282	-3.794184	91.339298	0.294024	0.839187	0.797458	4.184755	0.241508	1.519342	6.571178	0.114689	29.039689	11.182970	0.000000	2.353669	-0.543153	9.503705	4.071456	0.071060	24.458193	-14.464175	0.000000	0.146810	0.170554	1.052524	0.272641	0.226837	1.118306	0.241195	0.414686	1.118306	0.167790	0.414686	0.920958	0.136328	0.347795	0.855175	0.083887	0.264189	0.789393	1.048652	1.929347	5.853821	0.000000	0.000000	25.503555	-4.794893	-4.166455	4.824300	-6.210031	27.149916	53.576260	77.403424	-5.319368	-1.472845	14.482364	-5.493705	46.716775	51.415722	49.443621	2.317030	4.859041
0.306122	-0.622021	-3.673572	92.330636	0.292952	0.839265	0.797461	3.841274	0.488891	1.121604	6.147379	0.107292	28.936208	10.641526	0.000000	2.406058	-0.805221	10.120047	4.212752	0.073526	24.717530	-14.093195	0.000000	0.140997	0.194863	0.914939	0.261845	0.259167	0.972122	0.231643	0.473789	0.972122	0.161145	0.473789	0.800571	0.130930	0.397364	0.743388	0.080566	0.301842	0.686204	1.007125	2.204325	5.088615	0.000000	0.000000	25.346171	-4.855159	-4.547162	4.765150	-6.157366	27.130484	53.359380	75.783070	-4.981094	-0.525134	14.702487	-5.349873	47.258380	50.835620	48.860985	1.855838	4.554505
0.326531	-0.331655	-3.554023	93.279994	0.291872	0.839359	0.797484	3.508457	0.761822	0.893413	5.722634	0.099879	28.779627	9.905102	0.000000	2.442349	-1.081888	10.720206	4.329791	0.075569	24.946953	-13.743214	0.000000	0.134917	0.222750	0.789295	0.250554	0.296257	0.838626	0.221655	0.541594	0.838626	0.154196	0.541594	0.690633	0.125284	0.454231	0.641302	0.077091	0.345039	0.591972	0.963697	2.519791	4.389824	0.000000	0.000000	25.190875	-4.934727	-4.889244	4.826740	-6.208475	27.598620	53.053715	73.371501	-4.474559	0.569488	14.946746	-5.230572	47.970760	50.164740	47.961828	1.416836	3.955992
0.346939	-0.038984	-3.444866	94.129384	0.290874	0.839458	0.797548	3.213748	1.045648	0.774363	5.332515	0.093070	28.601079	9.127605	0.000000	2.460477	-1.361312	11.268627	4.407443	0.076924	25.129513	-13.435830	0.000000	0.129095	0.252152	0.687936	0.239742	0.335362	0.730932	0.212090	0.613081	0.730932	0.147543	0.613081	0.601944	0.119878	0.514187	0.558948	0.073765	0.390583	0.515952	0.922112	2.852389	3.826093	0.000000	0.000000	25.062320	-5.017658	-5.203417	5.032442	-6.360171	28.495373	52.684406	70.318927	-3.820809	1.735147	15.190082	-5.135424	48.741843	49.400488	47.015302	1.124826	3.026727
